<svg width="235" height="22" viewBox="0 0 235 22" fill="none" xmlns="http://www.w3.org/2000/svg">
<path d="M120.484 11.3207C120.484 7.43371 122.492 4.89075 125.96 4.89075C129.613 4.89075 131.459 7.68466 131.459 11.3541C131.459 15.2188 129.451 17.784 125.999 17.784C122.363 17.784 120.484 15.0292 120.484 11.3207ZM130.154 11.4099C130.154 8.04157 128.598 6.073 125.966 6.073C123.334 6.073 121.795 8.00811 121.795 11.2649C121.795 14.5217 123.351 16.6018 125.999 16.6018C128.648 16.6018 130.154 14.6499 130.154 11.4099Z" fill="#6F7779"/>
<path d="M141.252 12.8431C141.252 15.9605 139.657 17.7506 136.684 17.7506C135.898 17.7506 135.268 17.6446 134.733 17.4439V20.9683H133.478V8.57694C134.409 8.27023 135.485 8.07504 136.612 8.07504C139.763 8.07504 141.252 9.77593 141.252 12.8375V12.8431ZM139.98 12.9156C139.98 10.5678 138.926 9.19038 136.545 9.19038C135.92 9.19038 135.29 9.27961 134.738 9.40787V16.3899C135.329 16.5851 135.971 16.6743 136.618 16.6743C138.82 16.6743 139.986 15.3303 139.986 12.9156H139.98Z" fill="#6F7779"/>
<path d="M150.314 13.345H143.672C143.834 15.492 144.96 16.6408 147.001 16.6408C147.966 16.6408 149.042 16.4289 150.007 15.8712C149.974 16.1947 149.901 16.6743 149.812 17.0702C148.914 17.5888 147.983 17.7506 146.968 17.7506C143.979 17.7506 142.384 15.9437 142.384 12.8654C142.384 10.1997 143.6 8.08618 146.538 8.08618C149.226 8.08618 150.386 9.93206 150.386 12.2408C150.386 12.6144 150.37 12.9937 150.314 13.3506V13.345ZM143.672 12.2185H149.115V12.146C149.115 10.3726 148.256 9.17363 146.483 9.17363C144.709 9.17363 143.817 10.3559 143.672 12.2185Z" fill="#6F7779"/>
<path d="M159.75 11.4824V17.5331H158.495V11.7166C158.495 10.0492 157.87 9.19039 155.667 9.19039C155.021 9.19039 154.273 9.27961 153.593 9.44134V17.5331H152.338V8.58253C153.537 8.25908 154.703 8.08063 155.706 8.08063C158.735 8.08063 159.755 9.31865 159.755 11.4824H159.75Z" fill="#6F7779"/>
<path d="M171.678 14.5049H166.146L165.109 17.5331H163.781L168.098 5.21418C168.544 5.10823 169.135 5.05246 169.67 5.05246L174.037 17.5331H172.71L171.672 14.5049H171.678ZM171.282 13.3227L168.918 6.3574L166.536 13.3227H171.282Z" fill="#6F7779"/>
<path d="M174.634 12.9491C174.634 10.0102 176.173 8.08063 179.363 8.08063C180.099 8.08063 180.796 8.20331 181.493 8.51003C181.476 8.88367 181.42 9.24615 181.348 9.60306C180.668 9.29634 179.954 9.19039 179.363 9.19039C177.071 9.19039 175.905 10.5678 175.905 12.9156C175.905 15.4753 177.266 16.6408 179.112 16.6408C179.937 16.6408 180.779 16.3899 181.476 15.927C181.443 16.2839 181.387 16.7301 181.314 17.126C180.668 17.5721 179.865 17.7506 179.006 17.7506C176.374 17.7506 174.639 16.033 174.639 12.9546L174.634 12.9491Z" fill="#6F7779"/>
<path d="M190.176 8.58253V17.5331H189.01L188.977 16.836C188.369 17.3714 187.544 17.7506 186.54 17.7506C183.997 17.7506 182.424 16.0497 182.424 12.9881C182.424 9.92651 183.98 8.08063 187.187 8.08063C188.297 8.08063 189.228 8.22562 190.176 8.58253ZM186.646 16.7133C187.577 16.7133 188.33 16.3731 188.921 15.7988V9.40788C188.386 9.26288 187.828 9.19039 187.187 9.19039C184.789 9.19039 183.696 10.5846 183.696 12.9881C183.696 15.3917 184.7 16.7133 186.652 16.7133H186.646Z" fill="#6F7779"/>
<path d="M199.79 5.03576V17.5331H198.625L198.569 16.7802C197.961 17.3714 197.119 17.745 195.847 17.745C193.572 17.745 191.983 16.0441 191.983 12.9825C191.983 9.92093 193.539 8.07505 196.656 8.07505C197.32 8.07505 197.944 8.16428 198.535 8.326V5.20864C198.909 5.08595 199.378 5.03018 199.79 5.03018V5.03576ZM196.177 16.7077C197.125 16.7077 197.933 16.3341 198.541 15.743V9.4748C197.894 9.29634 197.214 9.19039 196.606 9.19039C194.347 9.19039 193.26 10.5344 193.26 12.9881C193.26 15.2968 194.247 16.7133 196.177 16.7133V16.7077Z" fill="#6F7779"/>
<path d="M209.482 13.345H202.841C203.002 15.492 204.129 16.6408 206.17 16.6408C207.135 16.6408 208.211 16.4289 209.176 15.8712C209.142 16.1947 209.07 16.6743 208.98 17.0702C208.088 17.5888 207.157 17.7506 206.136 17.7506C203.147 17.7506 201.552 15.9437 201.552 12.8654C201.552 10.1997 202.768 8.08618 205.707 8.08618C208.395 8.08618 209.555 9.93206 209.555 12.2408C209.555 12.6144 209.538 12.9937 209.482 13.3506V13.345ZM202.841 12.2185H208.283V12.146C208.283 10.3726 207.425 9.17363 205.651 9.17363C203.878 9.17363 202.986 10.3559 202.841 12.2185Z" fill="#6F7779"/>
<path d="M224.757 11.4824V17.5331H223.502V11.6776C223.502 10.0492 222.716 9.19039 220.87 9.19039C220.045 9.19039 219.242 9.38557 218.489 9.70902C218.684 10.1719 218.795 10.763 218.795 11.4824V17.5331H217.541V11.6441C217.541 9.90978 216.827 9.19039 214.908 9.19039C214.228 9.19039 213.459 9.27961 212.761 9.44134V17.5331H211.507V8.58253C212.706 8.25908 213.888 8.08063 215.037 8.08063C216.291 8.08063 217.223 8.31485 217.847 8.83348C218.834 8.37062 219.888 8.08063 220.981 8.08063C223.686 8.08063 224.757 9.31865 224.757 11.4824Z" fill="#6F7779"/>
<path d="M234.371 8.29251L230.378 18.5313C229.681 20.3381 228.8 21.1468 227.244 21.1468C226.976 21.1468 226.67 21.1133 226.419 21.0575C226.436 20.6839 226.475 20.2879 226.525 19.9645C226.703 19.998 226.921 20.037 227.116 20.037C228.315 20.037 228.873 19.5184 229.48 17.745L225.633 8.29251H226.993L230.088 16.1501L233.044 8.29251H234.371Z" fill="#6F7779"/>
<path d="M13.6629 8.30925C13.635 7.65678 13.4509 7.00431 13.1108 6.41876L10.1272 1.24918C9.89861 0.853232 9.74246 0.434981 9.65323 0L9.53054 0.21749C8.78885 1.49455 8.78885 3.07275 9.53054 4.35539L11.9174 8.49328C12.6535 9.77592 12.6535 11.3485 11.9174 12.6312L11.7947 12.8487C11.7054 12.4137 11.5493 11.9954 11.3207 11.5995L9.1346 7.81293L7.74043 5.39265C7.51179 4.9967 7.35564 4.57845 7.26641 4.14347L7.14372 4.36096C6.4076 5.63802 6.4076 7.20507 7.13815 8.48213L9.53612 12.6312C10.2778 13.9082 10.2778 15.4864 9.53612 16.7691L9.41343 16.9866C9.32421 16.5516 9.16806 16.1333 8.93942 15.7374L5.95589 10.5678C5.55437 9.8763 5.37034 9.09556 5.4038 8.3204C2.20836 9.15691 0 10.9303 0 12.9825C0 15.8378 4.26616 18.1521 9.53612 18.1521C14.8061 18.1521 19.0722 15.8378 19.0722 12.9825C19.0722 10.9303 16.8639 9.15691 13.6684 8.3204L13.6629 8.30925ZM22.6636 17.1371C22.6971 16.401 22.8086 15.8991 23.0038 15.3303C24.0076 15.7932 25.2958 16.0274 26.2829 16.0274C27.9503 16.0274 28.8816 15.492 28.8816 14.4324C28.8816 13.3729 28.2013 12.91 26.5171 12.1739L25.6025 11.7779C23.9184 11.0418 22.7752 10.0938 22.7752 8.19772C22.7752 6.15665 24.1916 4.84613 27.0915 4.84613C28.257 4.84613 29.3501 5.00786 30.3706 5.36477C30.3148 6.07858 30.1921 6.63625 30.0137 7.15488C29.0489 6.79797 27.9001 6.63625 27.0748 6.63625C25.5189 6.63625 24.7995 7.24411 24.7995 8.19214C24.7995 9.14018 25.4966 9.65881 26.7513 10.1997L27.7161 10.6124C29.9914 11.5772 30.9394 12.5977 30.9394 14.3376C30.9394 16.3954 29.3835 17.8119 26.3387 17.8119C24.872 17.8119 23.673 17.5944 22.6692 17.1316L22.6636 17.1371ZM40.5536 8.57693V17.5331H38.7468L38.6408 16.4568C38.1389 17.2431 37.3693 17.745 36.1146 17.745C33.7501 17.745 32.1774 16.0274 32.1774 13.016C32.1774 10.0046 33.8616 8.07503 37.1741 8.07503C38.4624 8.07503 39.5219 8.22002 40.5592 8.57693H40.5536ZM38.585 15.492V9.87072C38.1724 9.79822 37.7262 9.76476 37.1686 9.76476C35.1275 9.76476 34.1795 11.0195 34.1795 13.0215C34.1795 14.8507 34.9156 16.1389 36.6667 16.1389C37.4362 16.1389 38.0608 15.888 38.585 15.492ZM50.6362 11.5158V17.5331H48.6677V11.856C48.6677 10.4395 48.2048 9.75919 46.2307 9.75919C45.7678 9.75919 45.2101 9.81495 44.6748 9.90418V17.5331H42.7062V8.57693C43.961 8.27021 45.3384 8.07503 46.2864 8.07503C49.5823 8.07503 50.6362 9.34651 50.6362 11.5158ZM56.1014 16.0664C56.6758 16.0664 57.2111 15.9605 57.6406 15.7987C57.5848 16.3341 57.5179 16.9475 57.4063 17.4662C56.871 17.6836 56.2966 17.7506 55.7389 17.7506C53.8205 17.7506 52.6048 16.875 52.6048 14.689V5.28669C53.2127 5.09151 53.9655 5.00228 54.5734 5.00228V8.38732H57.6907C57.6573 8.99518 57.6015 9.55285 57.5123 10.0715H54.5734V14.4603C54.5734 15.6259 55.1478 16.072 56.0958 16.072L56.1014 16.0664ZM66.6692 8.58251V17.5387H64.8624L64.7564 16.4624C64.2545 17.2487 63.4849 17.7506 62.2302 17.7506C59.8657 17.7506 58.293 16.033 58.293 13.0215C58.293 10.0101 59.9772 8.08061 63.2897 8.08061C64.5779 8.08061 65.6375 8.2256 66.6748 8.58251H66.6692ZM64.7006 15.4976V9.8763C64.288 9.8038 63.8418 9.77034 63.2842 9.77034C61.2431 9.77034 60.2951 11.0251 60.2951 13.0271C60.2951 14.8563 61.0312 16.1445 62.7822 16.1445C63.5518 16.1445 64.1764 15.8935 64.7006 15.4976ZM76.7518 11.5214V17.5387H74.7833V11.8616C74.7833 10.4451 74.3204 9.76476 72.3463 9.76476C71.8834 9.76476 71.3257 9.82053 70.7904 9.90976V17.5387H68.8218V8.58251C70.0765 8.27579 71.454 8.08061 72.402 8.08061C75.6978 8.08061 76.7518 9.35209 76.7518 11.5214ZM86.7452 5.00228V17.5387H84.9384L84.8324 16.3899C84.3305 17.2319 83.561 17.7506 82.2727 17.7506C79.9082 17.7506 78.3356 16.033 78.3356 13.0215C78.3356 10.0101 80.0198 8.08061 83.3323 8.08061C83.8509 8.08061 84.3361 8.13638 84.799 8.2256V5.26996C85.4068 5.05247 86.1039 5.00228 86.7508 5.00228H86.7452ZM84.7934 15.4586V9.94322C84.2748 9.83726 83.7394 9.76476 83.2152 9.76476C81.2634 9.76476 80.3321 10.9805 80.3321 13.0215C80.3321 14.8507 81.0682 16.1389 82.8193 16.1389C83.6056 16.1389 84.2525 15.8712 84.7878 15.4586H84.7934ZM96.6494 13.7019H90.3645C90.6155 15.2968 91.5468 16.0664 93.3034 16.0664C94.3797 16.0664 95.4727 15.8322 96.4542 15.3861C96.3817 15.9047 96.2758 16.585 96.1475 17.1762C95.2497 17.5888 94.3016 17.7506 93.2477 17.7506C89.9518 17.7506 88.3569 15.9214 88.3569 12.8598C88.3569 10.1942 89.5949 8.08061 92.729 8.08061C95.5397 8.08061 96.761 9.92649 96.761 12.1795C96.761 12.7371 96.7275 13.1833 96.655 13.7019H96.6494ZM90.3255 12.0568H94.7645C94.7645 10.5901 93.9782 9.7313 92.6175 9.7313C91.2568 9.7313 90.4872 10.5399 90.3255 12.0568ZM103.542 8.1531C103.542 8.74423 103.47 9.45805 103.364 9.83726C102.901 9.7815 102.432 9.76476 101.875 9.76476C101.39 9.76476 100.91 9.79822 100.425 9.87072V17.5331H98.4563V8.57693C99.2983 8.29252 100.715 8.07503 101.825 8.07503C102.432 8.07503 103.113 8.09176 103.542 8.14753V8.1531Z" fill="#EC0000"/>
<path d="M112.582 0.680359V22H111.439V0.680359H112.582Z" fill="#6F7779"/>
</svg>
